<?xml version="1.0" encoding="UTF-8"?>
<!DOCTYPE svg PUBLIC "-//W3C//DTD SVG 1.1//EN" "http://www.w3.org/Graphics/SVG/1.1/DTD/svg11.dtd">
<svg xmlns="http://www.w3.org/2000/svg" version="1.1" width="217px" height="380px" style="shape-rendering:geometricPrecision; text-rendering:geometricPrecision; image-rendering:optimizeQuality; fill-rule:evenodd; clip-rule:evenodd" xmlns:xlink="http://www.w3.org/1999/xlink">
<g><path style="opacity:1" fill="#3e4144" d="M -0.5,-0.5 C 71.8333,-0.5 144.167,-0.5 216.5,-0.5C 216.5,126.167 216.5,252.833 216.5,379.5C 215.5,379.5 214.5,379.5 213.5,379.5C 213.5,253.167 213.5,126.833 213.5,0.5C 142.833,0.5 72.1667,0.5 1.5,0.5C 1.5,126.833 1.5,253.167 1.5,379.5C 0.833333,379.5 0.166667,379.5 -0.5,379.5C -0.5,252.833 -0.5,126.167 -0.5,-0.5 Z"/></g>
<g><path style="opacity:1" fill="#142c70" d="M 213.5,379.5 C 142.833,379.5 72.1667,379.5 1.5,379.5C 1.5,253.167 1.5,126.833 1.5,0.5C 72.1667,0.5 142.833,0.5 213.5,0.5C 213.5,126.833 213.5,253.167 213.5,379.5 Z"/></g>
<g><path style="opacity:1" fill="#8994bd" d="M 46.5,132.5 C 49.0961,133.265 51.7628,133.599 54.5,133.5C 52.1153,135.884 50.1153,138.55 48.5,141.5C 47.197,139.858 45.8637,138.191 44.5,136.5C 46.7619,135.655 47.4286,134.322 46.5,132.5 Z"/></g>
<g><path style="opacity:1" fill="#fafbfb" d="M 59.5,133.5 C 62.1667,133.5 64.8333,133.5 67.5,133.5C 74.682,141.528 79.5153,150.861 82,161.5C 82.769,164.099 82.6023,166.599 81.5,169C 65.8247,174.97 50.158,174.97 34.5,169C 33.6634,167.989 33.33,166.822 33.5,165.5C 37.3827,165.249 39.3827,163.249 39.5,159.5C 43.1185,160.244 46.7852,160.577 50.5,160.5C 50.9276,163.246 52.5943,164.913 55.5,165.5C 56.4519,163.955 56.7852,162.288 56.5,160.5C 60.9418,159.879 65.2752,158.879 69.5,157.5C 68.3626,148.562 65.0292,140.562 59.5,133.5 Z"/></g>
<g><path style="opacity:1" fill="#e5be1f" d="M 46.5,132.5 C 47.4286,134.322 46.7619,135.655 44.5,136.5C 43.4833,134.528 44.15,133.195 46.5,132.5 Z"/></g>
<g><path style="opacity:1" fill="#f8ca19" d="M 54.5,133.5 C 56.1667,133.5 57.8333,133.5 59.5,133.5C 65.0292,140.562 68.3626,148.562 69.5,157.5C 65.2752,158.879 60.9418,159.879 56.5,160.5C 54.6343,153.924 51.9677,147.591 48.5,141.5C 50.1153,138.55 52.1153,135.884 54.5,133.5 Z"/></g>
<g><path style="opacity:1" fill="#656e62" d="M 39.5,139.5 C 39.9175,140.222 40.5842,140.722 41.5,141C 40.283,142.648 39.4497,144.481 39,146.5C 38.6481,144.753 38.1481,143.086 37.5,141.5C 37.8333,140.5 38.5,139.833 39.5,139.5 Z"/></g>
<g><path style="opacity:1" fill="#335392" d="M 48.5,127.5 C 50.1667,128.833 51.8333,128.833 53.5,127.5C 54.6049,126.4 55.9382,125.733 57.5,125.5C 57.1961,126.15 56.8627,126.817 56.5,127.5C 58.2985,128.788 59.9652,128.788 61.5,127.5C 65.6104,127.9 69.777,127.234 74,125.5C 76.3899,126.278 78.5566,127.445 80.5,129C 76.0552,130.575 71.7219,132.075 67.5,133.5C 64.8333,133.5 62.1667,133.5 59.5,133.5C 57.8333,133.5 56.1667,133.5 54.5,133.5C 51.7628,133.599 49.0961,133.265 46.5,132.5C 44.15,133.195 43.4833,134.528 44.5,136.5C 45.8637,138.191 47.197,139.858 48.5,141.5C 51.9677,147.591 54.6343,153.924 56.5,160.5C 56.7852,162.288 56.4519,163.955 55.5,165.5C 52.5943,164.913 50.9276,163.246 50.5,160.5C 50.405,158.214 49.7384,156.214 48.5,154.5C 43.6946,153.513 38.6946,153.179 33.5,153.5C 32.7413,148.687 34.0747,144.687 37.5,141.5C 38.1481,143.086 38.6481,144.753 39,146.5C 39.4497,144.481 40.283,142.648 41.5,141C 40.5842,140.722 39.9175,140.222 39.5,139.5C 38.287,136.775 36.4536,134.441 34,132.5C 33.1923,130.421 33.359,128.421 34.5,126.5C 35.086,126.709 35.586,127.043 36,127.5C 37.8159,125.559 39.8159,124.892 42,125.5C 43.897,127.016 46.0637,127.683 48.5,127.5 Z"/></g>
<g><path style="opacity:1" fill="#e6e9f1" d="M 57.5,125.5 C 58.8333,126.167 60.1667,126.833 61.5,127.5C 59.9652,128.788 58.2985,128.788 56.5,127.5C 56.8627,126.817 57.1961,126.15 57.5,125.5 Z"/></g>
<g><path style="opacity:1" fill="#d8b41f" d="M 53.5,127.5 C 51.8333,128.833 50.1667,128.833 48.5,127.5C 50.3324,125.043 51.9991,125.043 53.5,127.5 Z"/></g>
<g><path style="opacity:1" fill="#2c3976" d="M 130.5,171.5 C 130.739,173.467 130.406,175.301 129.5,177C 118.102,178.883 106.769,180.05 95.5,180.5C 91.4476,179.756 87.4476,178.756 83.5,177.5C 82.6369,171.912 84.1369,166.912 88,162.5C 93.2173,155.777 99.7173,150.777 107.5,147.5C 118.642,152.306 126.309,160.306 130.5,171.5 Z"/></g>
<g><path style="opacity:1" fill="#d9b623" d="M 45.5,148.5 C 46.2674,149.172 46.9341,150.005 47.5,151C 45.8333,151.667 44.1667,151.667 42.5,151C 43.9423,150.623 44.9423,149.79 45.5,148.5 Z"/></g>
<g><path style="opacity:1" fill="#eec321" d="M 33.5,154.5 C 35.7957,154.804 36.129,155.804 34.5,157.5C 33.596,156.791 33.2627,155.791 33.5,154.5 Z"/></g>
<g><path style="opacity:1" fill="#8692bb" d="M 33.5,154.5 C 33.5,154.167 33.5,153.833 33.5,153.5C 38.6946,153.179 43.6946,153.513 48.5,154.5C 45.8333,154.5 43.1667,154.5 40.5,154.5C 40.3713,156.216 40.038,157.883 39.5,159.5C 39.3827,163.249 37.3827,165.249 33.5,165.5C 33.4013,162.763 33.7347,160.096 34.5,157.5C 36.129,155.804 35.7957,154.804 33.5,154.5 Z"/></g>
<g><path style="opacity:1" fill="#f7ca25" d="M 48.5,154.5 C 49.7384,156.214 50.405,158.214 50.5,160.5C 46.7852,160.577 43.1185,160.244 39.5,159.5C 40.038,157.883 40.3713,156.216 40.5,154.5C 43.1667,154.5 45.8333,154.5 48.5,154.5 Z"/></g>
<g><path style="opacity:1" fill="#f0f1f3" d="M 105.5,153.5 C 115.088,157.088 121.755,163.754 125.5,173.5C 113.926,176.976 102.26,177.31 90.5,174.5C 89.4173,173.635 89.2506,172.635 90,171.5C 93.2504,163.757 98.417,157.757 105.5,153.5 Z"/></g>
<g><path style="opacity:1" fill="#283773" d="M 109.5,164.5 C 107.833,165.833 106.167,165.833 104.5,164.5C 105.705,163.328 105.705,161.995 104.5,160.5C 105.333,158.833 106.167,157.167 107,155.5C 107.833,157.167 108.667,158.833 109.5,160.5C 108.295,161.995 108.295,163.328 109.5,164.5 Z"/></g>
<g><path style="opacity:1" fill="#1d306f" d="M 102.5,166.5 C 103.492,166.328 104.158,166.662 104.5,167.5C 103.069,168.78 102.402,170.447 102.5,172.5C 101.041,172.567 99.7079,172.234 98.5,171.5C 98.6696,168.796 100.003,167.129 102.5,166.5 Z"/></g>
<g><path style="opacity:1" fill="#182e6e" d="M 112.5,166.5 C 114.727,167.401 115.727,169.067 115.5,171.5C 114.312,172.684 113.145,172.684 112,171.5C 111.598,170.128 111.098,168.795 110.5,167.5C 110.957,166.702 111.624,166.369 112.5,166.5 Z"/></g>
<g><path style="opacity:1" fill="#545e85" d="M 104.5,164.5 C 106.167,165.833 107.833,165.833 109.5,164.5C 110.71,164.932 111.71,165.599 112.5,166.5C 111.624,166.369 110.957,166.702 110.5,167.5C 111.098,168.795 111.598,170.128 112,171.5C 113.145,172.684 114.312,172.684 115.5,171.5C 115.804,172.15 116.137,172.817 116.5,173.5C 110.537,174.496 104.537,174.829 98.5,174.5C 98.5,173.5 98.5,172.5 98.5,171.5C 99.7079,172.234 101.041,172.567 102.5,172.5C 102.402,170.447 103.069,168.78 104.5,167.5C 104.158,166.662 103.492,166.328 102.5,166.5C 102.833,165.5 103.5,164.833 104.5,164.5 Z"/></g>
<g><path style="opacity:1" fill="#142c6e" d="M 104.5,167.5 C 108.856,166.054 110.523,167.554 109.5,172C 107.866,172.494 106.199,172.66 104.5,172.5C 104.5,170.833 104.5,169.167 104.5,167.5 Z"/></g>
<g><path style="opacity:1" fill="#556083" d="M 130.5,171.5 C 131.434,172.772 132.101,174.272 132.5,176C 132.095,176.945 131.428,177.612 130.5,178C 118.953,180.229 107.286,181.063 95.5,180.5C 106.769,180.05 118.102,178.883 129.5,177C 130.406,175.301 130.739,173.467 130.5,171.5 Z"/></g>
<g><path style="opacity:1" fill="#cdd1db" d="M 57.5,191.5 C 57.5,192.167 57.5,192.833 57.5,193.5C 57.7852,195.288 57.4519,196.955 56.5,198.5C 55.803,194.623 55.1363,190.79 54.5,187C 55.8333,186.333 57.1667,186.333 58.5,187C 57.6198,188.356 57.2865,189.856 57.5,191.5 Z"/></g>
<g><path style="opacity:1" fill="#f1f2f5" d="M 107.5,187.5 C 108.601,186.402 109.934,186.235 111.5,187C 110.864,190.79 110.197,194.623 109.5,198.5C 108.833,194.687 108.166,191.021 107.5,187.5 Z"/></g>
<g><path style="opacity:1" fill="#caced8" d="M 35.5,187.5 C 37.2884,186.378 39.2884,186.211 41.5,187C 39.9183,191.631 38.7516,196.464 38,201.5C 38.1138,196.394 37.2805,191.727 35.5,187.5 Z"/></g>
<g><path style="opacity:1" fill="#c4c8d3" d="M 89.5,198.5 C 90.4124,197.262 90.5791,195.928 90,194.5C 87.3041,193.415 85.1374,191.749 83.5,189.5C 83.6082,188.558 83.9415,187.725 84.5,187C 86.8098,186.503 89.1432,186.337 91.5,186.5C 91.6495,187.552 91.4828,188.552 91,189.5C 88.9757,187.116 86.8091,186.949 84.5,189C 86.9112,190.955 89.4112,192.789 92,194.5C 92.9098,196.945 92.0764,198.278 89.5,198.5 Z"/></g>
<g><path style="opacity:1" fill="#aeb3c2" d="M 133.5,187.5 C 131.833,187.5 130.167,187.5 128.5,187.5C 128.823,191.226 128.489,194.893 127.5,198.5C 126.803,194.623 126.136,190.79 125.5,187C 128.367,186.199 131.034,186.366 133.5,187.5 Z"/></g>
<g><path style="opacity:1" fill="#e9ebef" d="M 133.5,187.5 C 136.956,188.536 137.29,190.203 134.5,192.5C 134.658,190.989 134.325,189.322 133.5,187.5 Z"/></g>
<g><path style="opacity:1" fill="#d6d9e2" d="M 150.5,187.5 C 152.288,186.378 154.288,186.211 156.5,187C 154.935,190.555 153.935,194.388 153.5,198.5C 153.112,194.411 152.112,190.744 150.5,187.5 Z"/></g>
<g><path style="opacity:1" fill="#dddfe6" d="M 44.5,186.5 C 46.6569,187.053 46.4903,188.053 44,189.5C 43.0218,192.669 43.5218,195.503 45.5,198C 45.1667,198.167 44.8333,198.333 44.5,198.5C 40.5028,194.51 40.5028,190.51 44.5,186.5 Z"/></g>
<g><path style="opacity:1" fill="#dddfe5" d="M 115.5,186.5 C 117.657,187.053 117.49,188.053 115,189.5C 114.022,192.669 114.522,195.503 116.5,198C 116.167,198.167 115.833,198.333 115.5,198.5C 111.503,194.51 111.503,190.51 115.5,186.5 Z"/></g>
<g><path style="opacity:1" fill="#e1e3e9" d="M 50.5,187.5 C 52.876,188.512 53.876,190.345 53.5,193C 53.7418,195.348 52.9084,197.182 51,198.5C 51.8195,194.851 51.6529,191.184 50.5,187.5 Z"/></g>
<g><path style="opacity:1" fill="#dfe1e7" d="M 121.5,187.5 C 123.876,188.512 124.876,190.345 124.5,193C 124.742,195.348 123.908,197.182 122,198.5C 122.82,194.851 122.653,191.184 121.5,187.5 Z"/></g>
<g><path style="opacity:1" fill="#b5bac7" d="M 158.5,187.5 C 159.251,186.427 160.251,186.26 161.5,187C 163.667,189.833 165.833,192.667 168,195.5C 168.777,192.571 168.61,189.737 167.5,187C 168.833,186.333 170.167,186.333 171.5,187C 169.77,190.852 168.937,195.018 169,199.5C 166.333,196.167 163.667,192.833 161,189.5C 160.833,191 160.667,192.5 160.5,194C 160.629,195.981 161.296,197.647 162.5,199C 160.833,199.667 159.167,199.667 157.5,199C 158.733,197.302 159.4,195.302 159.5,193C 159.494,190.967 159.161,189.134 158.5,187.5 Z"/></g>
<g><path style="opacity:1" fill="#e0e2e8" d="M 176.5,192.5 C 172.489,192.37 171.322,190.703 173,187.5C 173.257,189.907 174.424,191.573 176.5,192.5 Z"/></g>
<g><path style="opacity:1" fill="#d4d7df" d="M 69.5,187.5 C 71.1534,186.201 72.6534,186.534 74,188.5C 76.0546,191.454 78.2213,194.288 80.5,197C 80.3333,197.5 80.1667,198 80,198.5C 77.3333,195.167 74.6667,191.833 72,188.5C 71.6667,191.833 71.3333,195.167 71,198.5C 70.8227,194.644 70.3227,190.977 69.5,187.5 Z"/></g>
<g><path style="opacity:1" fill="#dddfe6" d="M 137.5,187.5 C 138.601,186.402 139.934,186.235 141.5,187C 140.62,188.356 140.286,189.856 140.5,191.5C 141.552,191.351 142.552,191.517 143.5,192C 144.64,193.973 145.973,195.807 147.5,197.5C 147.167,197.833 146.833,198.167 146.5,198.5C 144.833,196.5 143.167,194.5 141.5,192.5C 140.833,194.5 140.167,196.5 139.5,198.5C 138.833,194.687 138.166,191.021 137.5,187.5 Z"/></g>
<g><path style="opacity:1" fill="#d6d8e0" d="M 176.5,192.5 C 180.071,192.408 181.238,194.074 180,197.5C 179.003,195.677 177.836,194.01 176.5,192.5 Z"/></g>
<g><path style="opacity:1" fill="#697292" d="M 57.5,193.5 C 57.5,192.833 57.5,192.167 57.5,191.5C 59.5,191.5 61.5,191.5 63.5,191.5C 63.7135,189.856 63.3802,188.356 62.5,187C 64.1667,186.333 65.8333,186.333 67.5,187C 66.1667,191 66.1667,195 67.5,199C 65.8333,199.667 64.1667,199.667 62.5,199C 63.4231,196.959 63.7564,194.792 63.5,192.5C 61.3792,192.325 59.3792,192.659 57.5,193.5 Z"/></g>
<g><path style="opacity:1" fill="#8189a1" d="M 89.5,198.5 C 87.7116,199.622 85.7116,199.789 83.5,199C 82.1037,194.874 82.7704,194.541 85.5,198C 86.7932,198.49 88.1266,198.657 89.5,198.5 Z"/></g>
<g><path style="opacity:1" fill="#7d849e" d="M 99.5,186.5 C 100.873,186.343 102.207,186.51 103.5,187C 102.167,191 102.167,195 103.5,199C 101.833,199.667 100.167,199.667 98.5,199C 99.4637,194.934 99.797,190.767 99.5,186.5 Z"/></g>
<g><path style="opacity:1" fill="#8c93ab" d="M 171.5,195.5 C 173.03,197.941 175.363,199.108 178.5,199C 176.5,199.667 174.5,199.667 172.5,199C 171.663,197.989 171.33,196.822 171.5,195.5 Z"/></g>
<g><path style="opacity:1" fill="#9da3b6" d="M 63.5,205.5 C 65.5,205.5 67.5,205.5 69.5,205.5C 69.719,206.675 69.3857,207.675 68.5,208.5C 67.1667,207.167 65.8333,207.167 64.5,208.5C 63.6143,207.675 63.281,206.675 63.5,205.5 Z"/></g>
<g><path style="opacity:1" fill="#9ea4b6" d="M 132.5,205.5 C 134.331,206.052 135.997,206.052 137.5,205.5C 138.833,206.5 138.833,207.5 137.5,208.5C 136.167,207.167 134.833,207.167 133.5,208.5C 132.614,207.675 132.281,206.675 132.5,205.5 Z"/></g>
<g><path style="opacity:1" fill="#bfc3d0" d="M 119.5,218.5 C 121.429,218.231 123.095,218.731 124.5,220C 123.551,220.617 122.718,220.451 122,219.5C 120.506,223.304 119.672,222.971 119.5,218.5 Z"/></g>
<g><path style="opacity:1" fill="#8d94ab" d="M 64.5,218.5 C 67.0628,219.998 67.0628,221.665 64.5,223.5C 64.1928,222.113 64.1928,220.446 64.5,218.5 Z"/></g>
<g><path style="opacity:1" fill="#b9bdca" d="M 76.5,218.5 C 77.5862,218.62 78.2528,219.287 78.5,220.5C 78.1667,221.167 77.8333,221.833 77.5,222.5C 76.5713,221.311 76.238,219.978 76.5,218.5 Z"/></g>
<g><path style="opacity:1" fill="#e8e9ee" d="M 85.5,218.5 C 86.7206,219.028 87.8873,219.695 89,220.5C 89.3333,219.833 89.6667,219.167 90,218.5C 91.1096,222.84 90.1096,223.507 87,220.5C 86.6667,221.167 86.3333,221.833 86,222.5C 85.51,221.207 85.3433,219.873 85.5,218.5 Z"/></g>
<g><path style="opacity:1" fill="#e9eaee" d="M 141.5,220.5 C 140.25,220.577 139.417,221.244 139,222.5C 137.979,218.325 138.813,217.659 141.5,220.5 Z"/></g>
<g><path style="opacity:1" fill="#bdc2cd" d="M 148.5,220.5 C 146.621,220.607 146.288,220.107 147.5,219C 150.875,218.368 151.209,218.868 148.5,220.5 Z"/></g>
<g><path style="opacity:1" fill="#bec2ce" d="M 69.5,218.5 C 70.8734,218.343 72.2068,218.51 73.5,219C 74.4506,219.718 74.6172,220.551 74,221.5C 70.0539,223.36 68.5539,222.36 69.5,218.5 Z"/></g>
<g><path style="opacity:1" fill="#192d67" d="M 70.5,219.5 C 72.337,219.639 72.6704,220.306 71.5,221.5C 70.7025,221.043 70.3691,220.376 70.5,219.5 Z"/></g>
<g><path style="opacity:1" fill="#babecb" d="M 80.5,218.5 C 81.5862,218.62 82.2528,219.287 82.5,220.5C 82.1667,221.167 81.8333,221.833 81.5,222.5C 80.5713,221.311 80.238,219.978 80.5,218.5 Z"/></g>
<g><path style="opacity:1" fill="#71769b" d="M 93.5,218.5 C 94.552,218.351 95.552,218.517 96.5,219C 95.3659,220.016 95.6992,220.683 97.5,221C 96.0953,222.269 94.4286,222.769 92.5,222.5C 92.4326,221.041 92.7659,219.708 93.5,218.5 Z"/></g>
<g><path style="opacity:1" fill="#989eb3" d="M 103.5,218.5 C 105.01,219.728 106.51,219.728 108,218.5C 108.667,219.833 108.667,221.167 108,222.5C 106.667,221.167 105.333,221.167 104,222.5C 103.51,221.207 103.343,219.873 103.5,218.5 Z"/></g>
<g><path style="opacity:1" fill="#bfc3d0" d="M 126.5,218.5 C 128.106,219.359 129.773,219.526 131.5,219C 130.167,220 130.167,221 131.5,222C 130.065,221.689 128.732,221.855 127.5,222.5C 126.571,221.311 126.238,219.978 126.5,218.5 Z"/></g>
<g><path style="opacity:1" fill="#cccfd9" d="M 141.5,220.5 C 142.151,219.909 142.818,219.243 143.5,218.5C 144.833,219.833 144.833,221.167 143.5,222.5C 142.478,222.145 141.811,221.478 141.5,220.5 Z"/></g>
<g><path style="opacity:1" fill="#adb1c3" d="M 112.5,218.5 C 113.873,218.343 115.207,218.51 116.5,219C 117.451,219.718 117.617,220.551 117,221.5C 113.054,223.36 111.554,222.36 112.5,218.5 Z"/></g>
<g><path style="opacity:1" fill="#bcc1ce" d="M 148.5,220.5 C 149.376,220.369 150.043,220.702 150.5,221.5C 149.277,222.614 147.944,222.781 146.5,222C 147.416,221.722 148.082,221.222 148.5,220.5 Z"/></g>
<g><path style="opacity:1" fill="#b7bcca" d="M 58.5,225.5 C 60.1992,225.34 61.8659,225.506 63.5,226C 61.9238,226.44 60.5904,227.273 59.5,228.5C 58.6143,227.675 58.281,226.675 58.5,225.5 Z"/></g>
<g><path style="opacity:1" fill="#969cb0" d="M 118.5,225.5 C 120.359,225.461 121.692,226.294 122.5,228C 120.386,228.442 119.052,227.609 118.5,225.5 Z"/></g>
<g><path style="opacity:1" fill="#ced1da" d="M 161.5,226.5 C 162.946,225.387 164.613,225.22 166.5,226C 165.333,226.5 164.5,227.333 164,228.5C 163.583,227.244 162.75,226.577 161.5,226.5 Z"/></g>
<g><path style="opacity:1" fill="#eeeff2" d="M 66.5,225.5 C 68.0098,226.728 69.5098,226.728 71,225.5C 71.6667,226.5 71.6667,227.5 71,228.5C 69.6667,227.167 68.3333,227.167 67,228.5C 66.5172,227.552 66.3505,226.552 66.5,225.5 Z"/></g>
<g><path style="opacity:1" fill="#babecb" d="M 92.5,225.5 C 93.9403,226.363 95.2736,226.363 96.5,225.5C 97.9846,229.137 97.4846,229.804 95,227.5C 93.187,228.609 92.3537,227.942 92.5,225.5 Z"/></g>
<g><path style="opacity:1" fill="#d0d3dc" d="M 99.5,225.5 C 103.88,226.099 104.214,227.099 100.5,228.5C 99.6143,227.675 99.281,226.675 99.5,225.5 Z"/></g>
<g><path style="opacity:1" fill="#eeeff2" d="M 128.5,225.5 C 130.01,226.728 131.51,226.728 133,225.5C 133.667,226.5 133.667,227.5 133,228.5C 131.667,227.167 130.333,227.167 129,228.5C 128.517,227.552 128.351,226.552 128.5,225.5 Z"/></g>
<g><path style="opacity:1" fill="#c6c9d4" d="M 150.5,225.5 C 155.137,225.608 155.47,226.608 151.5,228.5C 150.614,227.675 150.281,226.675 150.5,225.5 Z"/></g>
<g><path style="opacity:1" fill="#d1d4dc" d="M 169.5,225.5 C 171.359,225.461 172.692,226.294 173.5,228C 172.256,228.456 171.423,227.956 171,226.5C 170.692,227.308 170.192,227.975 169.5,228.5C 168.438,227.575 168.438,226.575 169.5,225.5 Z"/></g>
<g><path style="opacity:1" fill="#b0b5c4" d="M 36.5,225.5 C 37.9953,225.415 38.9953,226.081 39.5,227.5C 37.9255,228.631 36.2588,228.798 34.5,228C 35.3805,227.292 36.0472,226.458 36.5,225.5 Z"/></g>
<g><path style="opacity:1" fill="#cccfd9" d="M 106.5,225.5 C 108.205,226.535 109.872,226.535 111.5,225.5C 112.386,226.325 112.719,227.325 112.5,228.5C 110.54,227.862 108.707,227.862 107,228.5C 106.517,227.552 106.351,226.552 106.5,225.5 Z"/></g>
<g><path style="opacity:1" fill="#dbdde4" d="M 136.5,225.5 C 138.167,225.5 139.833,225.5 141.5,225.5C 141.725,229.056 140.892,229.39 139,226.5C 137.989,226.892 137.489,227.559 137.5,228.5C 136.614,227.675 136.281,226.675 136.5,225.5 Z"/></g>
<g><path style="opacity:1" fill="#9fa5b7" d="M 144.5,225.5 C 146.359,225.461 147.692,226.294 148.5,228C 146.386,228.442 145.052,227.609 144.5,225.5 Z"/></g>
<g><path style="opacity:1" fill="#838aa5" d="M 84.5,225.5 C 85.7348,225.721 86.7348,226.388 87.5,227.5C 87.8333,226.833 88.1667,226.167 88.5,225.5C 90.4879,226.289 90.8213,227.455 89.5,229C 87.8659,229.494 86.1992,229.66 84.5,229.5C 84.5,228.167 84.5,226.833 84.5,225.5 Z"/></g>
<g><path style="opacity:1" fill="#e9ebef" d="M 33.5,236.5 C 37.1667,236.5 40.8333,236.5 44.5,236.5C 44.5,238.833 44.5,241.167 44.5,243.5C 40.8333,243.5 37.1667,243.5 33.5,243.5C 33.5,241.167 33.5,238.833 33.5,236.5 Z"/></g>
<g><path style="opacity:1" fill="#fefefe" d="M 66.5,236.5 C 66.5,238.5 66.5,240.5 66.5,242.5C 63.1667,242.5 59.8333,242.5 56.5,242.5C 56.5,240.5 56.5,238.5 56.5,236.5C 59.8333,236.5 63.1667,236.5 66.5,236.5 Z"/></g>
<g><path style="opacity:1" fill="#f2f3f5" d="M 79.5,236.5 C 82.8333,236.5 86.1667,236.5 89.5,236.5C 89.5,238.833 89.5,241.167 89.5,243.5C 86.1667,243.5 82.8333,243.5 79.5,243.5C 79.5,241.167 79.5,238.833 79.5,236.5 Z"/></g>
<g><path style="opacity:1" fill="#fafafb" d="M 102.5,236.5 C 105.833,236.5 109.167,236.5 112.5,236.5C 112.5,238.5 112.5,240.5 112.5,242.5C 109.167,242.5 105.833,242.5 102.5,242.5C 102.5,240.5 102.5,238.5 102.5,236.5 Z"/></g>
<g><path style="opacity:1" fill="#fefefe" d="M 134.5,236.5 C 134.5,238.5 134.5,240.5 134.5,242.5C 131.167,242.5 127.833,242.5 124.5,242.5C 124.5,240.5 124.5,238.5 124.5,236.5C 127.833,236.5 131.167,236.5 134.5,236.5 Z"/></g>
<g><path style="opacity:1" fill="#f2f3f5" d="M 147.5,236.5 C 150.833,236.5 154.167,236.5 157.5,236.5C 157.5,238.833 157.5,241.167 157.5,243.5C 154.167,243.5 150.833,243.5 147.5,243.5C 147.5,241.167 147.5,238.833 147.5,236.5 Z"/></g>
<g><path style="opacity:1" fill="#888fa3" d="M 66.5,236.5 C 67.4682,238.607 67.8016,240.941 67.5,243.5C 63.6286,243.815 59.9619,243.482 56.5,242.5C 59.8333,242.5 63.1667,242.5 66.5,242.5C 66.5,240.5 66.5,238.5 66.5,236.5 Z"/></g>
<g><path style="opacity:1" fill="#969dae" d="M 102.5,236.5 C 102.5,238.5 102.5,240.5 102.5,242.5C 105.833,242.5 109.167,242.5 112.5,242.5C 109.038,243.482 105.371,243.815 101.5,243.5C 101.198,240.941 101.532,238.607 102.5,236.5 Z"/></g>
<g><path style="opacity:1" fill="#8e95a9" d="M 134.5,236.5 C 135.468,238.607 135.802,240.941 135.5,243.5C 131.629,243.815 127.962,243.482 124.5,242.5C 127.833,242.5 131.167,242.5 134.5,242.5C 134.5,240.5 134.5,238.5 134.5,236.5 Z"/></g>
<g><path style="opacity:1" fill="#a1a6b6" d="M 170.5,236.5 C 170.5,238.5 170.5,240.5 170.5,242.5C 173.5,242.5 176.5,242.5 179.5,242.5C 179.5,240.5 179.5,238.5 179.5,236.5C 180.468,238.607 180.802,240.941 180.5,243.5C 176.833,243.5 173.167,243.5 169.5,243.5C 169.198,240.941 169.532,238.607 170.5,236.5 Z"/></g>
<g><path style="opacity:1" fill="#fefffe" d="M 170.5,236.5 C 173.5,236.5 176.5,236.5 179.5,236.5C 179.5,238.5 179.5,240.5 179.5,242.5C 176.5,242.5 173.5,242.5 170.5,242.5C 170.5,240.5 170.5,238.5 170.5,236.5 Z"/></g>
<g><path style="opacity:1" fill="#d0ede5" d="M 73.5,329.5 C 79.4745,328.38 80.8079,328.38 77.5,329.5C 77.1667,341.5 76.8333,341.5 76.5,329.5C 75.5,329.5 74.5,329.5 73.5,329.5 Z"/></g>
<g><path style="opacity:1" fill="#c1eae5" d="M 120.5,332.5 C 119.883,332.389 119.383,332.056 119,331.5C 118.667,333.833 118.333,336.167 118,338.5C 117.176,335.118 117.343,331.784 118.5,328.5C 120.111,329.32 120.778,330.654 120.5,332.5 Z"/></g>
<g><path style="opacity:1" fill="#bfbec7" d="M 120.5,332.5 C 121.151,333.091 121.818,333.757 122.5,334.5C 123.768,332.696 124.435,330.696 124.5,328.5C 125.5,328.5 126.5,328.5 127.5,328.5C 127.82,331.898 127.487,335.232 126.5,338.5C 125.692,336.577 125.192,334.577 125,332.5C 123.216,340.455 121.716,340.455 120.5,332.5 Z"/></g>
<g><path style="opacity:1" fill="#bfa7ac" d="M 89.5,331.5 C 90.7251,332.152 91.3917,333.319 91.5,335C 91.1667,336.167 90.8333,337.333 90.5,338.5C 89.5258,336.257 89.1924,333.924 89.5,331.5 Z"/></g>
<g><path style="opacity:1" fill="#d8cbc4" d="M 82.5,328.5 C 83.404,329.209 83.7373,330.209 83.5,331.5C 88.378,331.535 89.7113,333.868 87.5,338.5C 86.5344,336.604 86.2011,334.604 86.5,332.5C 85.5,332.5 84.5,332.5 83.5,332.5C 83.6621,334.527 83.4955,336.527 83,338.5C 82.5017,335.183 82.335,331.85 82.5,328.5 Z"/></g>
<g><path style="opacity:1" fill="#c9c7ce" d="M 93.5,331.5 C 95.4286,331.231 97.0953,331.731 98.5,333C 93.3932,332.165 93.2265,332.998 98,335.5C 98.6172,336.449 98.4506,337.282 97.5,338C 95.597,338.774 93.9304,338.44 92.5,337C 97.3521,337.466 97.5187,336.633 93,334.5C 92.5304,333.423 92.6971,332.423 93.5,331.5 Z"/></g>
<g><path style="opacity:1" fill="#c9c7ce" d="M 107.5,331.5 C 109.429,331.231 111.095,331.731 112.5,333C 107.393,332.165 107.227,332.998 112,335.5C 112.617,336.449 112.451,337.282 111.5,338C 109.597,338.774 107.93,338.44 106.5,337C 111.352,337.466 111.519,336.633 107,334.5C 106.53,333.423 106.697,332.423 107.5,331.5 Z"/></g>
<g><path style="opacity:1" fill="#c4bfc1" d="M 128.5,331.5 C 129.712,332.23 130.712,333.23 131.5,334.5C 132.167,333.5 132.833,332.5 133.5,331.5C 133.869,334.598 133.036,337.598 131,340.5C 130.605,337.348 129.772,334.348 128.5,331.5 Z"/></g>
<g><path style="opacity:1" fill="#cdced4" d="M 95.5,353.5 C 95.5,352.5 95.5,351.5 95.5,350.5C 91.0628,350.695 89.3962,348.861 90.5,345C 92.4406,344.257 94.2739,344.424 96,345.5C 96.6667,346.167 96.6667,346.833 96,347.5C 94.8904,345.963 93.3904,345.297 91.5,345.5C 91.5,346.5 91.5,347.5 91.5,348.5C 93.7224,348.178 95.5557,348.845 97,350.5C 97.5847,351.998 97.0847,352.998 95.5,353.5 Z"/></g>
<g><path style="opacity:1" fill="#e8cbbe" d="M 98.5,345.5 C 99.9221,345.75 100.922,346.583 101.5,348C 100.68,350.333 100.347,352.5 100.5,354.5C 99.5109,351.562 98.8442,348.562 98.5,345.5 Z"/></g>
<g><path style="opacity:1" fill="#bfb9bd" d="M 114.5,347.5 C 115.859,348.007 116.859,349.007 117.5,350.5C 118.167,349.5 118.833,348.5 119.5,347.5C 119.869,350.598 119.036,353.598 117,356.5C 116.605,353.348 115.772,350.348 114.5,347.5 Z"/></g>
<g><path style="opacity:1" fill="#f2d5bc" d="M 110.5,347.5 C 111.552,347.351 112.552,347.517 113.5,348C 111.901,349.786 111.067,351.953 111,354.5C 110.503,352.19 110.337,349.857 110.5,347.5 Z"/></g>
<g><path style="opacity:1" fill="#ded6ce" d="M 103.5,347.5 C 108.328,347.385 109.661,349.552 107.5,354C 102.57,354.427 101.237,352.26 103.5,347.5 Z"/></g>
<g><path style="opacity:1" fill="#233881" d="M 104.5,348.5 C 107.956,349.536 108.29,351.203 105.5,353.5C 103.296,352.218 102.962,350.551 104.5,348.5 Z"/></g>
<g><path style="opacity:1" fill="#c5dae6" d="M 95.5,353.5 C 94.9032,354.139 94.0698,354.472 93,354.5C 90.5438,354.713 89.5438,353.713 90,351.5C 91.4443,353.155 93.2776,353.822 95.5,353.5 Z"/></g>
<g><path style="opacity:1" fill="#546697" d="M 79.5,365.5 C 97.8454,365.167 116.179,365.5 134.5,366.5C 115.842,367.666 97.1756,367.833 78.5,367C 79.056,366.617 79.3893,366.117 79.5,365.5 Z"/></g>
</svg>
